<svg id="Capa_1" enable-background="new 0 0 512 512" height="512" viewBox="0 0 512 512" width="512" xmlns="http://www.w3.org/2000/svg"><g><g><path d="m87.5 504.5h-40c-22.091 0-40-17.909-40-40v-220c0-22.091 17.909-40 40-40h50z" fill="#e1f1fa"/></g><g><path d="m87.5 504.5 10-300h-50v300z" fill="#cdebfc"/></g><g><path d="m464.5 504.5h-40l-10-300h50c22.091 0 40 17.909 40 40v220c0 22.091-17.909 40-40 40z" fill="#e1f1fa"/></g><g><path d="m414.5 204.5 10 300h40v-300z" fill="#cdebfc"/></g><g><path d="m424.5 504.5h-337v-367c0-22.091 17.909-40 40-40h257c22.091 0 40 17.909 40 40z" fill="#f5fafc"/></g><g><path d="m167.5 97.5h-40c-22.091 0-40 17.909-40 40v367h40v-367c0-22.091 17.909-40 40-40z" fill="#e1f1fa"/></g><g><path d="m156 344.5h200v160h-200z" fill="#bfe1ff"/></g><g><path d="m156 344.5h40v160h-40z" fill="#a3d4ff"/></g><g><path d="m256 344.5h40v160h-40z" fill="#a3d4ff"/></g><g><g><g><ellipse cx="176.355" cy="267.44" fill="#ffa1ac" rx="29.387" ry="23.403"/></g><g><ellipse cx="335.645" cy="267.44" fill="#ffa1ac" rx="29.387" ry="23.403"/></g><g><path d="m279.694 249.459c0-14.643-10.608-16.019-23.693-16.019-13.086 0-23.694 1.376-23.694 16.019s10.608 26.513 23.694 26.513c13.085 0 23.693-11.871 23.693-26.513z" fill="#495560"/></g></g><g><path d="m181.268 247c-4.142 0-7.5-3.358-7.5-7.5v-12c0-4.142 3.358-7.5 7.5-7.5s7.5 3.358 7.5 7.5v12c0 4.142-3.358 7.5-7.5 7.5z"/></g><g><path d="m256 283.472c-17.2 0-31.193-15.258-31.193-34.013 0-23.519 21.859-23.519 31.193-23.519s31.193 0 31.193 23.519c0 18.754-13.993 34.013-31.193 34.013zm0-42.532c-15.539 0-16.193 2.611-16.193 8.519 0 10.484 7.264 19.013 16.193 19.013s16.193-8.529 16.193-19.013c0-5.908-.654-8.519-16.193-8.519z"/></g><g><path d="m330.732 247c-4.142 0-7.5-3.358-7.5-7.5v-12c0-4.142 3.358-7.5 7.5-7.5s7.5 3.358 7.5 7.5v12c0 4.142-3.358 7.5-7.5 7.5z"/></g></g><g><circle cx="256" cy="97.5" fill="#ff9b87" r="90"/></g><g><path d="m236 167.5c0-11.046 8.954-20 20-20v-100c-11.046 0-20-8.954-20-20s8.954-20 20-20c-49.706 0-90 40.294-90 90s40.294 90 90 90c-11.046 0-20-8.954-20-20z" fill="#ff8870"/></g><g><path d="m286 77.5h-10v-10c0-11.046-8.954-20-20-20-11.046 0-20 8.954-20 20v10h-10c-11.046 0-20 8.954-20 20 0 11.046 8.954 20 20 20h10v10c0 11.046 8.954 20 20 20 11.046 0 20-8.954 20-20v-10h10c11.046 0 20-8.954 20-20 0-11.046-8.954-20-20-20z" fill="#fff"/></g><g><path d="m266 117.5c-11.046 0-20-8.954-20-20s8.954-20 20-20h10v-10c0-11.046-8.954-20-20-20-11.046 0-20 8.954-20 20v10h-10c-11.046 0-20 8.954-20 20s8.954 20 20 20h10v10c0 11.046 8.954 20 20 20 11.046 0 20-8.954 20-20v-10z" fill="#e1f1fa"/></g><g><path d="m356 364.5h-200c-11.046 0-20-8.954-20-20 0-11.046 8.954-20 20-20h200c11.046 0 20 8.954 20 20 0 11.046-8.954 20-20 20z" fill="#e1f1fa"/></g><g><path d="m176 344.5c0-11.046 8.954-20 20-20h-40c-11.046 0-20 8.954-20 20s8.954 20 20 20h40c-11.046 0-20-8.954-20-20z" fill="#cdebfc"/></g><g><path d="m464.5 197h-32.5v-59.5c0-26.191-21.309-47.5-47.5-47.5h-31.286c-3.842-50.271-45.976-90-97.214-90s-93.372 39.729-97.214 90h-31.286c-26.191 0-47.5 21.309-47.5 47.5v59.5h-32.5c-26.191 0-47.5 21.309-47.5 47.5v220c0 26.191 21.309 47.5 47.5 47.5h417c26.191 0 47.5-21.309 47.5-47.5v-220c0-26.191-21.309-47.5-47.5-47.5zm-449.5 267.5v-220c0-17.92 14.58-32.5 32.5-32.5h32.5v117.5c0 4.142 3.358 7.5 7.5 7.5s7.5-3.358 7.5-7.5v-192c0-17.92 14.58-32.5 32.5-32.5h31.286c3.842 50.271 45.976 90 97.214 90 20.397 0 39.934-6.234 56.497-18.028 3.374-2.403 4.162-7.085 1.759-10.46-2.403-3.374-7.086-4.162-10.46-1.759-14.008 9.975-30.535 15.247-47.796 15.247-45.491 0-82.5-37.009-82.5-82.5s37.009-82.5 82.5-82.5 82.5 37.009 82.5 82.5c0 17.262-5.272 33.79-15.248 47.797-2.403 3.374-1.615 8.057 1.759 10.46 3.374 2.402 8.057 1.615 10.46-1.759 10.341-14.521 16.406-31.329 17.744-48.999h31.285c17.92 0 32.5 14.58 32.5 32.5v359.501h-53.5v-126.048c11.528-3.274 20-13.889 20-26.452 0-15.164-12.336-27.5-27.5-27.5h-200c-15.164 0-27.5 12.336-27.5 27.5 0 12.563 8.472 23.178 20 26.452v126.048h-53.5v-137.5c0-4.142-3.358-7.5-7.5-7.5s-7.5 3.358-7.5 7.5v137.5h-32.5c-17.92 0-32.5-14.58-32.5-32.5zm341-107.5h-200c-6.893 0-12.5-5.607-12.5-12.5s5.607-12.5 12.5-12.5h200c6.893 0 12.5 5.607 12.5 12.5s-5.607 12.5-12.5 12.5zm-192.5 15h85v125h-85zm100 0h85v125h-85zm233.5 92.5c0 17.92-14.58 32.5-32.5 32.5h-32.5v-285h32.5c17.92 0 32.5 14.58 32.5 32.5z"/><path d="m286 70h-2.5v-2.5c0-15.164-12.336-27.5-27.5-27.5s-27.5 12.336-27.5 27.5v2.5h-2.5c-15.164 0-27.5 12.336-27.5 27.5s12.336 27.5 27.5 27.5h2.5v2.5c0 15.164 12.336 27.5 27.5 27.5s27.5-12.336 27.5-27.5v-2.5h2.5c15.164 0 27.5-12.336 27.5-27.5s-12.336-27.5-27.5-27.5zm0 40h-10c-4.142 0-7.5 3.358-7.5 7.5v10c0 6.893-5.607 12.5-12.5 12.5s-12.5-5.607-12.5-12.5v-10c0-4.142-3.358-7.5-7.5-7.5h-10c-6.893 0-12.5-5.607-12.5-12.5s5.607-12.5 12.5-12.5h10c4.142 0 7.5-3.358 7.5-7.5v-10c0-6.893 5.607-12.5 12.5-12.5s12.5 5.607 12.5 12.5v10c0 4.142 3.358 7.5 7.5 7.5h10c6.893 0 12.5 5.607 12.5 12.5s-5.607 12.5-12.5 12.5z"/></g></g></svg>